<?xml version="1.0" standalone="no"?>
<!DOCTYPE svg PUBLIC "-//W3C//DTD SVG 20010904//EN"
 "http://www.w3.org/TR/2001/REC-SVG-20010904/DTD/svg10.dtd">
<svg version="1.0" xmlns="http://www.w3.org/2000/svg"
 width="800.000000pt" height="800.000000pt" viewBox="0 0 800.000000 800.000000"
 preserveAspectRatio="xMidYMid meet">

<g transform="translate(0.000000,800.000000) scale(0.100000,-0.100000)"
fill="#000000" stroke="none">
<path d="M5515 6434 c-236 -113 -438 -213 -447 -222 -16 -15 -53 -135 -251
-807 l-33 -110 -269 -5 c-250 -5 -275 -7 -335 -28 -173 -63 -300 -174 -381
-337 -45 -90 -57 -152 -61 -320 l-3 -110 1260 -3 c1205 -2 1262 -1 1294 16 47
25 71 74 71 143 0 105 -62 159 -181 159 l-65 0 -17 54 c-24 76 -102 191 -176
259 -70 64 -211 138 -299 156 -31 6 -171 11 -332 11 -217 0 -280 3 -280 13 0
11 219 760 223 762 1 1 186 89 410 195 437 207 437 207 437 281 0 45 -56 99
-101 98 -22 0 -185 -73 -464 -205z"/>
<path d="M3007 4689 c-37 -21 -50 -67 -43 -150 7 -71 6 -79 -13 -88 -11 -6
-36 -11 -56 -11 -49 0 -96 -21 -128 -59 -33 -39 -41 -82 -29 -149 12 -68 2
-80 -75 -90 -33 -5 -73 -16 -87 -25 -58 -38 -67 -92 -20 -118 21 -11 28 -10
53 9 16 11 53 24 82 28 64 8 95 22 129 59 23 24 25 34 25 120 0 51 3 97 8 101
4 4 34 11 68 16 121 16 161 67 157 200 -1 46 2 93 6 105 6 15 2 27 -13 42 -23
23 -37 25 -64 10z"/>
<path d="M3503 4685 c-33 -23 -46 -76 -38 -154 8 -80 7 -82 -79 -92 -97 -12
-151 -67 -150 -152 0 -29 3 -64 7 -78 11 -42 -11 -60 -81 -68 -118 -14 -179
-100 -101 -142 17 -9 27 -7 48 8 14 11 56 24 93 30 125 21 166 81 145 213 -4
25 -3 51 2 59 5 8 37 18 71 23 121 16 162 67 159 195 -1 43 1 90 5 105 6 20 3
31 -13 47 -25 25 -39 26 -68 6z"/>
<path d="M3780 4295 c-30 -32 -29 -40 9 -280 l33 -200 61 -39 c182 -118 328
-313 372 -499 10 -40 19 -74 21 -75 1 -2 132 64 291 146 158 82 371 192 473
244 347 179 795 410 917 474 67 35 131 64 142 64 12 0 21 1 21 3 0 1 7 40 15
87 8 47 15 88 15 93 0 4 -528 7 -1173 7 l-1174 0 -23 -25z"/>
<path d="M6085 3941 c-28 -17 -998 -520 -1465 -759 -113 -58 -207 -107 -209
-108 -2 -2 7 -25 20 -51 45 -92 35 -214 -22 -293 l-29 -39 32 -51 c18 -28 37
-76 43 -105 l10 -54 310 160 c171 89 506 262 745 386 239 124 440 230 446 234
6 5 16 33 22 62 12 54 113 521 130 595 11 47 9 49 -33 23z"/>
<path d="M2695 3809 c-424 -39 -757 -251 -845 -538 -11 -35 -20 -78 -20 -97
l0 -34 1133 2 1132 3 -3 40 c-5 64 -41 161 -85 227 -133 199 -382 339 -687
387 -86 14 -512 20 -625 10z m-133 -146 c10 -9 18 -23 18 -32 -1 -47 -63 -101
-115 -101 -80 0 -73 92 10 135 39 19 64 19 87 -2z m352 1 c47 -46 -20 -134
-102 -134 -35 0 -52 16 -52 50 1 32 16 52 60 79 42 25 73 27 94 5z m-620 -190
c20 -19 20 -27 1 -65 -34 -64 -121 -90 -151 -45 -13 21 -14 29 -2 53 28 59
117 92 152 57z m404 -76 c50 -50 -70 -164 -137 -129 -58 32 8 141 86 141 21 0
44 -5 51 -12z m-294 -99 c14 -11 26 -29 26 -39 0 -50 -98 -77 -160 -45 -38 20
-41 65 -7 88 33 24 109 21 141 -4z"/>
<path d="M5410 2767 c-289 -150 -654 -339 -812 -421 -158 -82 -294 -153 -303
-160 -8 -6 -22 -37 -30 -69 -19 -73 -54 -141 -100 -197 -20 -24 -34 -49 -30
-57 3 -8 5 -17 5 -19 0 -2 321 -4 713 -4 489 0 724 4 752 11 61 17 118 62 148
117 23 41 35 99 76 353 99 608 113 699 109 708 -1 5 -239 -113 -528 -262z"/>
<path d="M1720 3011 c-53 -29 -72 -55 -78 -109 -3 -41 0 -52 22 -79 55 -66 19
-63 820 -63 399 0 726 3 726 6 0 3 -31 57 -70 119 -38 61 -72 119 -76 128 -6
16 -61 17 -658 17 -614 -1 -653 -2 -686 -19z"/>
<path d="M3230 3021 c0 -25 161 -341 179 -350 11 -6 34 -11 51 -11 26 0 52 20
161 123 72 67 161 150 197 184 l67 62 -327 1 c-181 0 -328 -4 -328 -9z"/>
<path d="M4054 3013 c-15 -46 -34 -67 -142 -154 l-116 -94 184 -3 c170 -2 186
-1 228 19 58 28 90 91 72 143 -22 67 -85 106 -171 106 -38 0 -51 -4 -55 -17z"/>
<path d="M1720 2598 c-24 -13 -45 -27 -47 -33 -1 -5 25 -19 60 -31 34 -12 89
-32 122 -45 51 -20 77 -23 180 -23 114 0 124 1 210 36 153 61 162 63 300 63
118 0 137 -3 205 -29 41 -15 100 -37 130 -49 67 -24 198 -33 271 -18 96 20
228 81 176 81 -7 0 -32 16 -54 35 l-41 35 -734 0 -734 0 -44 -22z"/>
<path d="M3647 2595 l-27 -24 37 -6 c43 -7 116 -31 218 -71 62 -25 84 -28 185
-28 121 -1 220 21 220 48 0 24 -43 68 -84 87 -36 16 -69 19 -281 18 -240 0
-240 0 -268 -24z"/>
<path d="M2370 2476 c-158 -59 -186 -67 -257 -76 -114 -15 -223 1 -344 50 -56
22 -107 40 -115 40 -23 0 -16 -46 12 -80 60 -70 -44 -65 1294 -65 l1205 0 41
22 c22 12 47 29 55 39 13 16 12 17 -14 10 -151 -37 -302 -25 -452 36 -93 38
-108 41 -215 45 -124 5 -119 6 -325 -68 -81 -29 -101 -32 -200 -32 -122 0
-159 8 -290 60 -83 34 -100 37 -210 40 -108 3 -127 1 -185 -21z"/>
<path d="M1820 2197 c0 -44 35 -120 75 -165 58 -64 120 -104 220 -139 l80 -28
765 0 765 0 82 28 c93 31 188 91 227 142 36 46 66 114 66 148 l0 27 -1140 0
c-937 0 -1140 -2 -1140 -13z"/>
</g>
</svg>
